# File created by Blade
# Date/Time:  Tue Sep 30 19:35:54 2014
#---------------------------------------------------------
:version 1.10
:name HOM
:units
  mass 1.0
  length 1.000000
  angle deg
:documentation
     Acclaim Skeleton File
:root
   axis xyz
   order TX TY TZ RX RY RZ
   position 0.000000 0.000000 0.000000
   orientation 0 0 0
:bonedata
   begin
      id 1
      name Spine_dum
      direction 0.000000 1.000000 0.000000
      length 3.241213
      axis 0.0 0.0 0.0 xyz
   end
   begin
      id 2
      name LeftUpLeg_dum
      direction 1.000000 0.000000 0.000000
      length 3.434019
      axis 0.0 0.0 0.0 xyz
   end
   begin
      id 3
      name RightUpLeg_dum
      direction -1.000000 0.000000 0.000000
      length 3.434019
      axis 0.0 0.0 0.0 xyz
   end
   begin
      id 4
      name Spine
      direction 0.000000 1.000000 0.000000
      length 0.000000
      axis 0.0 0.0 0.0 xyz
      dof rx ry rz
   end
   begin
      id 5
      name Spine_dum1
      direction 0.000000 1.000000 0.000000
      length 18.382958
      axis 0.0 0.0 0.0 xyz
   end
   begin
      id 6
      name Spine_dum2
      direction 0.000000 1.000000 0.000000
      length 12.828261
      axis 0.0 0.0 0.0 xyz
   end
   begin
      id 7
      name Spine_dum3
      direction 0.000000 1.000000 0.000000
      length 12.828261
      axis 0.0 0.0 0.0 xyz
   end
   begin
      id 8
      name Head
      direction 0.000000 1.000000 0.000000
      length 4.527550
      axis 0.0 0.0 0.0 xyz
      dof rx ry rz
   end
   begin
      id 9
      name LeftShoulder
      direction 1.000000 0.000000 0.000000
      length 7.748055
      axis 0.0 0.0 -90.0 xyz
      dof rx ry rz
   end
   begin
      id 10
      name LeftArm
      direction 1.000000 0.000000 0.000000
      length 10.635614
      axis 0.0 0.0 -90.0 xyz
      dof rx ry rz
   end
   begin
      id 11
      name LeftForeArm
      direction 1.000000 0.000000 0.000000
      length 8.346755
      axis 0.0 0.0 -90.0 xyz
      dof ry rz rx
   end
   begin
      id 12
      name LeftHand
      direction 0.000000 0.000000 0.000000
      length 0.000000
      axis 0.0 0.0 -90.0 xyz
      dof rx ry rz
   end
   begin
      id 13
      name LeftHand_dum1
      direction 0.000000 0.000000 0.000000
      length 0.000000
      axis 0.0 0.0 -90.0 xyz
   end
   begin
      id 14
      name LeftHand_dum2
      direction 1.000000 0.000000 0.000000
      length 3.937000
      axis 0.0 0.0 -90.0 xyz
   end
   begin
      id 15
      name LeftHandThumb1
      direction 0.000000 0.000000 1.000000
      length 3.937000
      axis 0.0 0.0 -90.0 xyz
      dof rx rz ry
   end
   begin
      id 16
      name RightShoulder
      direction -1.000000 0.000000 0.000000
      length 7.748055
      axis 0.0 0.0 90.0 xyz
      dof rx ry rz
   end
   begin
      id 17
      name RightArm
      direction -1.000000 0.000000 0.000000
      length 10.635614
      axis 0.0 0.0 90.0 xyz
      dof rx ry rz
   end
   begin
      id 18
      name RightForeArm
      direction -1.000000 0.000000 0.000000
      length 8.346755
      axis 0.0 0.0 90.0 xyz
      dof ry rz rx
   end
   begin
      id 19
      name RightHand
      direction 0.000000 0.000000 0.000000
      length 0.000000
      axis 0.0 0.0 90.0 xyz
      dof rx ry rz
   end
   begin
      id 20
      name RightHand_dum1
      direction 0.000000 0.000000 0.000000
      length 0.000000
      axis 0.0 0.0 90.0 xyz
   end
   begin
      id 21
      name RightHand_dum2
      direction -1.000000 0.000000 0.000000
      length 3.937000
      axis 0.0 0.0 90.0 xyz
   end
   begin
      id 22
      name RightHandThumb1
      direction 0.000000 0.000000 1.000000
      length 3.937000
      axis 0.0 0.0 90.0 xyz
      dof rx rz ry
   end
   begin
      id 23
      name LeftUpLeg
      direction 0.000000 -1.000000 0.000000
      length 15.713025
      axis 0.0 0.0 0.0 xyz
      dof rx ry rz
   end
   begin
      id 24
      name LeftLeg
      direction 0.000000 -1.000000 0.000000
      length 14.435119
      axis 0.0 0.0 0.0 xyz
      dof rx ry rz
   end
   begin
      id 25
      name LeftFoot
      direction 0.000000 -0.258819 0.965926
      length 4.938895
      axis 15.0 0.0 0.0 xyz
      dof rx ry rz
   end
   begin
      id 26
      name LeftToeBase
      direction 0.000000 0.000000 1.000000
      length 2.952750
      axis 0.0 0.0 0.0 xyz
      dof rx ry rz
   end
   begin
      id 27
      name RightUpLeg
      direction 0.000000 -1.000000 0.000000
      length 15.713025
      axis 0.0 0.0 0.0 xyz
      dof rx ry rz
   end
   begin
      id 28
      name RightLeg
      direction 0.000000 -1.000000 0.000000
      length 14.435119
      axis 0.0 0.0 0.0 xyz
      dof rx ry rz
   end
   begin
      id 29
      name RightFoot
      direction 0.000000 -0.258819 0.965926
      length 4.938895
      axis 15.0 0.0 0.0 xyz
      dof rx ry rz
   end
   begin
      id 30
      name RightToeBase
      direction 0.000000 0.000000 1.000000
      length 2.952750
      axis 0.0 0.0 0.0 xyz
      dof rx ry rz
   end
:hierarchy
   begin
      root Spine_dum LeftUpLeg_dum RightUpLeg_dum
      Spine_dum Spine
      LeftUpLeg_dum LeftUpLeg
      RightUpLeg_dum RightUpLeg
      Spine Spine_dum1 Spine_dum2 Spine_dum3
      Spine_dum1 Head
      Spine_dum2 LeftShoulder
      Spine_dum3 RightShoulder
      LeftShoulder LeftArm
      LeftArm LeftForeArm
      LeftForeArm LeftHand
      LeftHand LeftHand_dum1 LeftHand_dum2
      LeftHand_dum1 LeftHandThumb1
      RightShoulder RightArm
      RightArm RightForeArm
      RightForeArm RightHand
      RightHand RightHand_dum1 RightHand_dum2
      RightHand_dum1 RightHandThumb1
      LeftUpLeg LeftLeg
      LeftLeg LeftFoot
      LeftFoot LeftToeBase
      RightUpLeg RightLeg
      RightLeg RightFoot
      RightFoot RightToeBase
   end

# File created by Blade
# Date/Time:  Tue Sep 23 19:15:59 2014
# Frame Rate: 120.000 fps
#------------------------------------------------------
:FULLY-SPECIFIED
:DEGREES
540
root 4.793454 32.956701 -4.433537 33.288753 -13.367415 -30.944915
Spine -26.742662 -24.140786 30.996054
Head -5.574040 -7.838162 1.483832
LeftShoulder 10.083055 36.688822 30.098705
LeftArm 74.971778 21.490372 -68.213098
LeftForeArm -1.868885 -0.000000 58.929542
LeftHand 37.714245 -0.000000 29.237026
LeftHandThumb1 -26.253704 0.000000 33.147579
RightShoulder 2.909504 -46.091587 -19.872727
RightArm 69.604330 -10.379372 52.848494
RightForeArm 59.760167 -0.000000 66.574994
RightHand 6.124021 -0.000000 20.209916
RightHandThumb1 -24.326973 -0.000000 -32.862282
LeftUpLeg -38.762726 18.119295 18.858625
LeftLeg 33.045748 -0.000000 -0.000000
LeftFoot -20.252873 10.263148 -1.843891
LeftToeBase -3.776664 -0.000000 0.000000
RightUpLeg -149.535795 -29.786718 20.387476
RightLeg 36.632064 -0.000000 -0.000000
RightFoot 41.141191 -19.620286 7.317087
RightToeBase 46.113025 -0.000000 -0.000000
541
root 4.784489 32.978141 -4.412072 32.797911 -13.120966 -30.941250
Spine -26.235346 -24.277791 30.844704
Head -5.897906 -8.070187 1.484628
LeftShoulder 10.105114 36.579781 30.336036
LeftArm 75.919211 21.792082 -66.000744
LeftForeArm -4.228121 -0.000000 56.820244
LeftHand 38.958040 0.000000 26.137963
LeftHandThumb1 -26.253704 0.000000 33.147579
RightShoulder 2.580741 -45.655888 -19.692367
RightArm 69.033063 -10.535914 53.490671
RightForeArm 59.529159 -0.000000 66.250131
RightHand 6.062529 0.000000 20.229539
RightHandThumb1 -24.326973 -0.000000 -32.862282
LeftUpLeg -38.209119 18.008652 19.037439
LeftLeg 32.745481 -0.000000 -0.000000
LeftFoot -20.255256 10.010147 -1.970626
LeftToeBase -3.779733 -0.000000 0.000000
RightUpLeg -149.144106 -30.590197 20.708779
RightLeg 33.875832 -0.000000 -0.000000
RightFoot 41.128972 -20.331271 7.162811
RightToeBase 45.724330 -0.000000 -0.000000
542
root 4.775070 32.994886 -4.393514 32.424487 -12.766909 -30.950852
Spine -25.833797 -24.317200 30.802460
Head -6.392156 -8.336783 1.474715
LeftShoulder 10.184505 36.495490 30.771251
LeftArm 77.348029 22.079744 -63.104063
LeftForeArm -5.836619 0.000000 54.903663
LeftHand 39.687437 -0.000000 23.888660
LeftHandThumb1 -26.253704 0.000000 33.147579
RightShoulder 2.262800 -45.271087 -19.678263
RightArm 68.380967 -10.673045 54.371805
RightForeArm 59.195707 -0.000000 66.216961
RightHand 5.988312 -0.000000 20.284291
RightHandThumb1 -24.326973 -0.000000 -32.862282
LeftUpLeg -37.893596 17.876998 19.226843
LeftLeg 32.588651 -0.000000 -0.000000
LeftFoot -20.291410 9.728981 -2.139620
LeftToeBase -3.723777 -0.000000 0.000000
RightUpLeg -149.024176 -31.469655 21.163052
RightLeg 31.394218 -0.000000 -0.000000
RightFoot 41.084717 -20.977372 6.928820
RightToeBase 45.373486 -0.000000 -0.000000
543
root 4.761780 33.008779 -4.377007 32.106519 -12.335121 -31.009434
Spine -25.461490 -24.313993 30.858244
Head -7.015245 -8.592893 1.479731
LeftShoulder 10.297122 36.344703 31.311681
LeftArm 79.020234 22.315822 -60.015184
LeftForeArm -7.614062 -0.000000 53.195008
LeftHand 41.433495 -0.000000 18.497635
LeftHandThumb1 -26.253704 0.000000 33.147579
RightShoulder 2.033164 -45.097270 -19.810823
RightArm 67.805907 -10.655624 55.489385
RightForeArm 58.548284 0.000000 66.380075
RightHand 5.791014 -0.000000 20.567350
RightHandThumb1 -24.326973 -0.000000 -32.862282
LeftUpLeg -37.707293 17.741259 19.473002
LeftLeg 32.536705 -0.000000 -0.000000
LeftFoot -20.362948 9.438957 -2.365442
LeftToeBase -3.600187 -0.000000 0.000000
RightUpLeg -149.029546 -32.449879 21.671601
RightLeg 29.121389 -0.000000 -0.000000
RightFoot 41.074797 -21.496476 6.510767
RightToeBase 45.151774 -0.000000 -0.000000
544
root 4.742643 33.023181 -4.361549 31.851767 -11.821015 -31.135421
Spine -25.122178 -24.219764 31.014075
Head -7.718589 -8.983553 1.501341
LeftShoulder 10.497472 36.220394 31.873742
LeftArm 81.147100 22.404756 -56.451476
LeftForeArm -9.009040 -0.000000 51.646048
LeftHand 42.509183 -0.000000 14.019497
LeftHandThumb1 -26.253704 0.000000 33.147579
RightShoulder 1.726647 -45.072378 -19.985327
RightArm 67.347727 -10.676048 56.659920
RightForeArm 57.843687 -0.000000 66.677927
RightHand 5.763324 -0.000000 20.556931
RightHandThumb1 -24.326973 -0.000000 -32.862282
LeftUpLeg -37.635791 17.668990 19.775938
LeftLeg 32.554558 -0.000000 -0.000000
LeftFoot -20.418028 9.105387 -2.510226
LeftToeBase -3.551094 -0.000000 0.000000
RightUpLeg -149.187234 -33.527570 22.269246
RightLeg 27.106675 -0.000000 -0.000000
RightFoot 41.068672 -21.810106 5.949424
RightToeBase 44.831191 -0.000000 -0.000000
545
root 4.716165 33.034047 -4.344677 31.508522 -11.174296 -31.198130
Spine -24.780617 -24.276158 31.154330
Head -8.377907 -9.443084 1.634528
LeftShoulder 10.793849 35.969272 32.513605
LeftArm 83.354201 22.572195 -52.987564
LeftForeArm -12.084060 -0.000000 50.218590
LeftHand 44.226671 -0.000000 8.962042
LeftHandThumb1 -26.253704 0.000000 33.147579
RightShoulder 1.418547 -45.205194 -20.179103
RightArm 67.030978 -10.675947 57.866353
RightForeArm 57.079635 -0.000000 66.997305
RightHand 5.588234 -0.000000 20.734729
RightHandThumb1 -24.326973 -0.000000 -32.862282
LeftUpLeg -37.582301 17.515350 20.076629
LeftLeg 32.607478 -0.000000 -0.000000
LeftFoot -20.471409 8.684437 -2.657631
LeftToeBase -3.525661 -0.000000 0.000000
RightUpLeg -149.358941 -34.985038 22.736843
RightLeg 25.326923 -0.000000 -0.000000
RightFoot 40.822194 -21.960759 5.492726
RightToeBase 44.814384 -0.000000 -0.000000
546
root 4.686123 33.044205 -4.323460 31.141744 -10.526086 -31.209711
Spine -24.499382 -24.462829 31.297814
Head -8.874402 -9.878189 1.758177
LeftShoulder 11.173330 35.884921 33.021431
LeftArm 85.612436 22.501585 -49.850934
LeftForeArm -15.531868 0.000000 48.943646
LeftHand 46.239427 -0.000000 3.300745
LeftHandThumb1 -26.253704 0.000000 33.147579
RightShoulder 1.305316 -45.279762 -20.494728
RightArm 66.668825 -10.717482 58.930090
RightForeArm 56.477176 -0.000000 67.366855
RightHand 5.732295 -0.000000 20.752168
RightHandThumb1 -24.326973 -0.000000 -32.862282
LeftUpLeg -37.488754 17.342755 20.330915
LeftLeg 32.597815 -0.000000 -0.000000
LeftFoot -20.528310 8.269178 -2.776938
LeftToeBase -3.486395 -0.000000 0.000000
RightUpLeg -149.569061 -36.539754 23.126801
RightLeg 23.664019 -0.000000 -0.000000
RightFoot 40.685124 -21.859483 4.710965
RightToeBase 44.485704 -0.000000 -0.000000
547
root 4.651072 33.051878 -4.298747 30.566227 -9.801574 -31.177269
Spine -24.074349 -24.886199 31.384321
Head -9.258708 -10.334814 1.939091
LeftShoulder 11.712972 35.814859 33.502876
LeftArm 87.539272 22.319840 -47.375375
LeftForeArm -16.677350 -0.000000 48.268219
LeftHand 47.460165 -0.000000 0.255176
LeftHandThumb1 -26.253704 0.000000 33.147579
RightShoulder 1.137482 -45.399122 -20.700157
RightArm 66.429631 -10.756918 59.782163
RightForeArm 56.152435 -0.000000 67.709314
RightHand 5.913867 -0.000000 20.599983
RightHandThumb1 -24.326973 -0.000000 -32.862282
LeftUpLeg -37.195724 17.012792 20.635606
LeftLeg 32.521904 -0.000000 -0.000000
LeftFoot -20.683673 7.871291 -2.978080
LeftToeBase -3.353592 -0.000000 0.000000
RightUpLeg -149.720081 -38.221495 23.478776
RightLeg 22.111767 -0.000000 -0.000000
RightFoot 40.340187 -22.059424 4.062447
RightToeBase 44.393223 -0.000000 -0.000000
548
root 4.609730 33.053245 -4.277608 29.826418 -9.084368 -30.988471
Spine -23.516442 -25.499102 31.203878
Head -9.572111 -10.745432 2.345685
LeftShoulder 12.341200 35.679086 33.982165
LeftArm 88.965354 22.124809 -45.823373
LeftForeArm -16.046838 -0.000000 48.147310
LeftHand 48.563138 -0.000000 -2.162133
LeftHandThumb1 -26.253704 0.000000 33.147579
RightShoulder 0.830973 -45.488344 -20.672414
RightArm 66.172478 -10.786933 60.455295
RightForeArm 55.794981 -0.000000 68.085290
RightHand 6.119049 -0.000000 20.455943
RightHandThumb1 -24.326973 -0.000000 -32.862282
LeftUpLeg -36.769330 16.559038 20.841589
LeftLeg 32.399043 -0.000000 -0.000000
LeftFoot -20.839104 7.459933 -3.186748
LeftToeBase -3.310826 -0.000000 0.000000
RightUpLeg -149.728439 -40.051800 23.530424
RightLeg 20.584599 -0.000000 -0.000000
RightFoot 39.922542 -22.434656 3.318777
RightToeBase 44.400827 -0.000000 -0.000000
549
root 4.591427 33.065781 -4.251537 29.748433 -8.367736 -30.918061
Spine -23.716706 -25.871392 31.656087
Head -9.729659 -11.000592 2.386731
LeftShoulder 12.754879 35.604220 34.057092
LeftArm 90.024797 22.119722 -44.886040
LeftForeArm -17.061131 -0.000000 48.685210
LeftHand 49.660884 -0.000000 -5.351505
LeftHandThumb1 -26.253704 0.000000 33.147579
RightShoulder 0.679294 -45.500736 -20.877906
RightArm 65.867504 -10.856827 60.959650
RightForeArm 55.559843 -0.000000 68.569241
RightHand 6.327851 -0.000000 20.078908
RightHandThumb1 -24.326973 -0.000000 -32.862282
LeftUpLeg -36.874516 16.238701 20.984364
LeftLeg 32.157853 -0.000000 -0.000000
LeftFoot -20.999234 7.149783 -3.457903
LeftToeBase -3.179684 -0.000000 0.000000
RightUpLeg -150.591605 -41.264330 24.426769
RightLeg 19.056280 -0.000000 -0.000000
RightFoot 39.521610 -22.775104 2.286644
RightToeBase 44.151539 -0.000000 -0.000000
550
root 4.574924 33.077764 -4.224057 29.727100 -7.709853 -30.836310
Spine -23.977765 -26.265183 32.152307
Head -9.862791 -11.109850 2.383491
LeftShoulder 13.004497 35.503321 33.861358
LeftArm 90.824262 22.150672 -44.306185
LeftForeArm -18.233560 -0.000000 49.657306
LeftHand 50.416385 -0.000000 -8.179751
LeftHandThumb1 -26.253704 0.000000 33.147579
RightShoulder 0.416676 -45.572513 -20.983229
RightArm 65.702533 -10.905096 61.228008
RightForeArm 55.511518 -0.000000 69.027139
RightHand 6.487492 -0.000000 19.819071
RightHandThumb1 -24.326973 -0.000000 -32.862282
LeftUpLeg -36.995234 15.974110 21.081388
LeftLeg 31.897338 -0.000000 -0.000000
LeftFoot -21.064368 6.881432 -3.528586
LeftToeBase -3.208654 -0.000000 0.000000
RightUpLeg -151.582113 -42.242839 25.417873
RightLeg 17.558279 -0.000000 -0.000000
RightFoot 38.991865 -23.578371 1.684212
RightToeBase 43.883007 -0.000000 -0.000000
551
root 4.555211 33.089351 -4.194355 29.620865 -7.085252 -30.737781
Spine -24.187054 -26.802240 32.635413
Head -9.941272 -11.077684 2.373439
LeftShoulder 12.950741 35.264019 33.468099
LeftArm 91.427908 22.331539 -43.987568
LeftForeArm -20.334142 -0.000000 49.995519
LeftHand 50.681301 -0.000000 -9.862292
LeftHandThumb1 -26.253704 0.000000 33.147579
RightShoulder 0.208904 -45.668868 -21.094160
RightArm 65.569418 -10.839027 61.580705
RightForeArm 56.017847 0.000000 69.278496
RightHand 6.919434 -0.000000 19.938260
RightHandThumb1 -24.326973 -0.000000 -32.862282
LeftUpLeg -37.033512 15.692814 21.185275
LeftLeg 31.671234 -0.000000 -0.000000
LeftFoot -21.160626 6.513049 -3.721989
LeftToeBase -3.017933 -0.000000 0.000000
RightUpLeg -152.679531 -42.964992 26.499360
RightLeg 16.271238 -0.000000 -0.000000
RightFoot 38.327637 -24.361903 1.308052
RightToeBase 43.652115 -0.000000 -0.000000
